<svg id="visual" viewBox="0 0 900 600" width="900" height="600" xmlns="http://www.w3.org/2000/svg" xmlns:xlink="http://www.w3.org/1999/xlink" version="1.1"><g stroke-width="1" stroke-linejoin="bevel"><path d="M519 306L560 276L499 233Z" fill="#277297" stroke="#277297"></path><path d="M361 268L504 387L519 306Z" fill="#0c2435" stroke="#0c2435"></path><path d="M519 306L591 391L560 276Z" fill="#205a7a" stroke="#205a7a"></path><path d="M499 233L361 268L519 306Z" fill="#246688" stroke="#246688"></path><path d="M504 387L591 391L519 306Z" fill="#081a28" stroke="#081a28"></path><path d="M723 211L630 169L560 276Z" fill="#0c2435" stroke="#0c2435"></path><path d="M560 276L630 169L499 233Z" fill="#112e42" stroke="#112e42"></path><path d="M499 233L472 70L417 188Z" fill="#0c2435" stroke="#0c2435"></path><path d="M417 188L361 268L499 233Z" fill="#297ea6" stroke="#297ea6"></path><path d="M630 169L615 120L499 233Z" fill="#1d4e6b" stroke="#1d4e6b"></path><path d="M591 391L716 319L560 276Z" fill="#19435d" stroke="#19435d"></path><path d="M630 169L709 115L615 120Z" fill="#297ea6" stroke="#297ea6"></path><path d="M615 120L472 70L499 233Z" fill="#205a7a" stroke="#205a7a"></path><path d="M417 188L306 183L361 268Z" fill="#297ea6" stroke="#297ea6"></path><path d="M716 319L723 211L560 276Z" fill="#081a28" stroke="#081a28"></path><path d="M361 268L364 407L504 387Z" fill="#246688" stroke="#246688"></path><path d="M504 387L590 468L591 391Z" fill="#1d4e6b" stroke="#1d4e6b"></path><path d="M504 538L590 468L504 387Z" fill="#00101c" stroke="#00101c"></path><path d="M591 391L734 383L716 319Z" fill="#246688" stroke="#246688"></path><path d="M472 70L386 81L417 188Z" fill="#246688" stroke="#246688"></path><path d="M386 81L306 183L417 188Z" fill="#0c2435" stroke="#0c2435"></path><path d="M361 268L293 334L364 407Z" fill="#205a7a" stroke="#205a7a"></path><path d="M306 183L293 334L361 268Z" fill="#297ea6" stroke="#297ea6"></path><path d="M723 211L709 115L630 169Z" fill="#246688" stroke="#246688"></path><path d="M611 0L498 0L472 70Z" fill="#081a28" stroke="#081a28"></path><path d="M684 503L734 383L591 391Z" fill="#1d4e6b" stroke="#1d4e6b"></path><path d="M776 291L761 189L723 211Z" fill="#00101c" stroke="#00101c"></path><path d="M723 211L761 189L709 115Z" fill="#19435d" stroke="#19435d"></path><path d="M776 291L723 211L716 319Z" fill="#0c2435" stroke="#0c2435"></path><path d="M734 383L776 291L716 319Z" fill="#205a7a" stroke="#205a7a"></path><path d="M196 292L273 363L293 334Z" fill="#1d4e6b" stroke="#1d4e6b"></path><path d="M293 334L273 363L364 407Z" fill="#00101c" stroke="#00101c"></path><path d="M611 0L472 70L615 120Z" fill="#277297" stroke="#277297"></path><path d="M472 70L405 0L386 81Z" fill="#1d4e6b" stroke="#1d4e6b"></path><path d="M372 521L504 538L504 387Z" fill="#1d4e6b" stroke="#1d4e6b"></path><path d="M590 468L684 503L591 391Z" fill="#297ea6" stroke="#297ea6"></path><path d="M372 521L504 387L364 407Z" fill="#1d4e6b" stroke="#1d4e6b"></path><path d="M386 81L288 113L306 183Z" fill="#112e42" stroke="#112e42"></path><path d="M306 183L196 292L293 334Z" fill="#00101c" stroke="#00101c"></path><path d="M306 0L288 113L386 81Z" fill="#081a28" stroke="#081a28"></path><path d="M702 0L611 0L615 120Z" fill="#081a28" stroke="#081a28"></path><path d="M603 600L684 503L590 468Z" fill="#15384f" stroke="#15384f"></path><path d="M734 383L838 396L776 291Z" fill="#205a7a" stroke="#205a7a"></path><path d="M498 0L405 0L472 70Z" fill="#0c2435" stroke="#0c2435"></path><path d="M264 518L372 521L364 407Z" fill="#1d4e6b" stroke="#1d4e6b"></path><path d="M805 0L702 0L709 115Z" fill="#00101c" stroke="#00101c"></path><path d="M709 115L702 0L615 120Z" fill="#19435d" stroke="#19435d"></path><path d="M900 178L807 114L761 189Z" fill="#0c2435" stroke="#0c2435"></path><path d="M761 189L807 114L709 115Z" fill="#246688" stroke="#246688"></path><path d="M164 227L196 292L306 183Z" fill="#297ea6" stroke="#297ea6"></path><path d="M273 363L264 518L364 407Z" fill="#297ea6" stroke="#297ea6"></path><path d="M402 600L480 600L504 538Z" fill="#00101c" stroke="#00101c"></path><path d="M504 538L603 600L590 468Z" fill="#0c2435" stroke="#0c2435"></path><path d="M803 486L838 396L734 383Z" fill="#112e42" stroke="#112e42"></path><path d="M776 291L900 178L761 189Z" fill="#0c2435" stroke="#0c2435"></path><path d="M405 0L306 0L386 81Z" fill="#15384f" stroke="#15384f"></path><path d="M189 123L164 227L306 183Z" fill="#081a28" stroke="#081a28"></path><path d="M480 600L603 600L504 538Z" fill="#246688" stroke="#246688"></path><path d="M684 503L803 486L734 383Z" fill="#205a7a" stroke="#205a7a"></path><path d="M267 600L402 600L372 521Z" fill="#081a28" stroke="#081a28"></path><path d="M372 521L402 600L504 538Z" fill="#297ea6" stroke="#297ea6"></path><path d="M688 600L803 486L684 503Z" fill="#277297" stroke="#277297"></path><path d="M189 123L306 183L288 113Z" fill="#00101c" stroke="#00101c"></path><path d="M179 384L264 518L273 363Z" fill="#15384f" stroke="#15384f"></path><path d="M179 384L273 363L196 292Z" fill="#00101c" stroke="#00101c"></path><path d="M184 0L189 123L288 113Z" fill="#081a28" stroke="#081a28"></path><path d="M96 293L179 384L196 292Z" fill="#081a28" stroke="#081a28"></path><path d="M603 600L688 600L684 503Z" fill="#081a28" stroke="#081a28"></path><path d="M900 431L900 324L838 396Z" fill="#19435d" stroke="#19435d"></path><path d="M838 396L900 324L776 291Z" fill="#0c2435" stroke="#0c2435"></path><path d="M900 324L900 178L776 291Z" fill="#00101c" stroke="#00101c"></path><path d="M807 114L805 0L709 115Z" fill="#205a7a" stroke="#205a7a"></path><path d="M900 83L805 0L807 114Z" fill="#246688" stroke="#246688"></path><path d="M179 384L216 519L264 518Z" fill="#277297" stroke="#277297"></path><path d="M264 518L267 600L372 521Z" fill="#205a7a" stroke="#205a7a"></path><path d="M189 123L132 163L164 227Z" fill="#00101c" stroke="#00101c"></path><path d="M164 227L96 293L196 292Z" fill="#1d4e6b" stroke="#1d4e6b"></path><path d="M97 65L132 163L189 123Z" fill="#246688" stroke="#246688"></path><path d="M900 479L900 431L803 486Z" fill="#0c2435" stroke="#0c2435"></path><path d="M803 486L900 431L838 396Z" fill="#1d4e6b" stroke="#1d4e6b"></path><path d="M216 519L267 600L264 518Z" fill="#19435d" stroke="#19435d"></path><path d="M900 178L900 83L807 114Z" fill="#0c2435" stroke="#0c2435"></path><path d="M132 163L96 293L164 227Z" fill="#19435d" stroke="#19435d"></path><path d="M179 384L97 465L216 519Z" fill="#0c2435" stroke="#0c2435"></path><path d="M306 0L184 0L288 113Z" fill="#0c2435" stroke="#0c2435"></path><path d="M831 600L900 479L803 486Z" fill="#246688" stroke="#246688"></path><path d="M688 600L831 600L803 486Z" fill="#297ea6" stroke="#297ea6"></path><path d="M900 83L900 0L805 0Z" fill="#19435d" stroke="#19435d"></path><path d="M61 385L97 465L179 384Z" fill="#1d4e6b" stroke="#1d4e6b"></path><path d="M216 519L182 600L267 600Z" fill="#0c2435" stroke="#0c2435"></path><path d="M184 0L97 65L189 123Z" fill="#081a28" stroke="#081a28"></path><path d="M0 213L0 300L96 293Z" fill="#081a28" stroke="#081a28"></path><path d="M0 300L61 385L96 293Z" fill="#297ea6" stroke="#297ea6"></path><path d="M96 293L61 385L179 384Z" fill="#277297" stroke="#277297"></path><path d="M104 600L182 600L216 519Z" fill="#112e42" stroke="#112e42"></path><path d="M831 600L900 600L900 479Z" fill="#297ea6" stroke="#297ea6"></path><path d="M184 0L73 0L97 65Z" fill="#246688" stroke="#246688"></path><path d="M0 213L96 293L132 163Z" fill="#297ea6" stroke="#297ea6"></path><path d="M0 489L104 600L97 465Z" fill="#1d4e6b" stroke="#1d4e6b"></path><path d="M0 213L132 163L0 103Z" fill="#15384f" stroke="#15384f"></path><path d="M0 103L132 163L97 65Z" fill="#1d4e6b" stroke="#1d4e6b"></path><path d="M97 465L104 600L216 519Z" fill="#19435d" stroke="#19435d"></path><path d="M0 399L97 465L61 385Z" fill="#1d4e6b" stroke="#1d4e6b"></path><path d="M0 300L0 399L61 385Z" fill="#081a28" stroke="#081a28"></path><path d="M0 0L0 103L97 65Z" fill="#246688" stroke="#246688"></path><path d="M0 399L0 489L97 465Z" fill="#246688" stroke="#246688"></path><path d="M73 0L0 0L97 65Z" fill="#112e42" stroke="#112e42"></path><path d="M0 489L0 600L104 600Z" fill="#112e42" stroke="#112e42"></path></g></svg>